<svg width="161" height="134" viewBox="0 0 161 134" fill="none" xmlns="http://www.w3.org/2000/svg">
<path d="M31.1486 21.6689L28.9271 8.33473H20.9533C19.7639 3.74777 15.625 0.334229 10.6673 0.334229C4.7843 0.334229 0 5.11853 0 11.0016C0 16.8846 4.7843 21.6689 10.6673 21.6689C15.625 21.6689 19.7639 18.2553 20.956 13.6684H24.4069L25.7403 21.6689H25.6389L39.4291 91.0492C32.8554 91.5506 27.3804 96.6122 26.735 102.981C26.3563 106.728 27.5884 110.48 30.1165 113.269C32.6474 116.067 36.2529 117.675 40.0025 117.675H45.3362C45.3362 126.499 52.5126 133.676 61.3372 133.676C70.1617 133.676 77.3382 126.499 77.3382 117.675H106.673C106.673 126.499 113.85 133.676 122.674 133.676C131.499 133.676 138.675 126.499 138.675 117.675H149.343C150.817 117.675 152.009 116.483 152.009 115.008C152.009 113.533 150.817 112.341 149.343 112.341H137.742C135.539 106.135 129.627 101.674 122.674 101.674C115.722 101.674 109.81 106.135 107.607 112.341H76.4048C74.202 106.135 68.2896 101.674 61.3372 101.674C54.3847 101.674 48.4724 106.135 46.2696 112.341H40.0025C37.757 112.341 35.5969 111.376 34.0715 109.693C32.5327 107.989 31.81 105.797 32.042 103.517C32.4474 99.4924 36.1649 96.3429 40.5039 96.3429H42.6133C42.6507 96.3429 42.68 96.3429 42.7173 96.3429H146.708C154.044 96.3402 160.01 90.3745 160.01 83.0407V21.6689H31.1486ZM10.6673 16.3352C7.72582 16.3352 5.33367 13.9431 5.33367 11.0016C5.33367 8.06004 7.72582 5.66789 10.6673 5.66789C13.6088 5.66789 16.001 8.06004 16.001 11.0016C16.001 13.9431 13.6088 16.3352 10.6673 16.3352ZM122.674 107.008C128.557 107.008 133.342 111.792 133.342 117.675C133.342 123.558 128.557 128.342 122.674 128.342C116.791 128.342 112.007 123.558 112.007 117.675C112.007 111.792 116.791 107.008 122.674 107.008ZM61.3372 107.008C67.2202 107.008 72.0045 111.792 72.0045 117.675C72.0045 123.558 67.2202 128.342 61.3372 128.342C55.4541 128.342 50.6698 123.558 50.6698 117.675C50.6698 111.792 55.4541 107.008 61.3372 107.008ZM154.676 83.0407C154.676 87.433 151.103 91.0066 146.71 91.0066H44.8588L32.138 27.0026H154.676V83.0407Z" fill="#32A8D3"/>
</svg>
