<svg width="161" height="161" viewBox="0 0 161 161" fill="none" xmlns="http://www.w3.org/2000/svg">
<path d="M34.2873 68.5751C43.7421 68.5751 51.431 60.8861 51.431 51.4313C51.431 41.9766 43.7421 34.2876 34.2873 34.2876C24.8325 34.2876 17.1436 41.9766 17.1436 51.4313C17.1436 60.8861 24.8325 68.5751 34.2873 68.5751ZM34.2873 40.0022C40.5905 40.0022 45.7164 45.1281 45.7164 51.4313C45.7164 57.7345 40.5905 62.8605 34.2873 62.8605C27.9841 62.8605 22.8581 57.7345 22.8581 51.4313C22.8581 45.1281 27.9841 40.0022 34.2873 40.0022Z" fill="#32A8D3"/>
<path d="M125.72 68.5751C135.175 68.5751 142.864 60.8861 142.864 51.4313C142.864 41.9766 135.175 34.2876 125.72 34.2876C116.266 34.2876 108.577 41.9766 108.577 51.4313C108.577 60.8861 116.266 68.5751 125.72 68.5751ZM125.72 40.0022C132.024 40.0022 137.15 45.1281 137.15 51.4313C137.15 57.7345 132.024 62.8605 125.72 62.8605C119.417 62.8605 114.291 57.7345 114.291 51.4313C114.291 45.1281 119.417 40.0022 125.72 40.0022Z" fill="#32A8D3"/>
<path d="M154.294 74.2896V111.434C154.294 116.16 150.448 120.006 145.722 120.006V88.576C145.722 80.6984 139.313 74.2896 131.435 74.2896H117.149C115.572 74.2896 114.292 75.5696 114.292 77.1468V88.576V91.4333V94.2906H91.4332C89.856 94.2906 88.5759 95.5706 88.5759 97.1479V105.72H71.4322V97.1479C71.4322 95.5706 70.1522 94.2906 68.5749 94.2906H45.7166V91.4333V88.576V77.1468C45.7166 75.5696 44.4366 74.2896 42.8593 74.2896H28.5729C20.6953 74.2896 14.2864 80.6984 14.2864 88.576V120.006C9.56049 120.006 5.71458 116.16 5.71458 111.434V74.2896H0V111.434C0 117.277 3.53447 122.298 8.57187 124.509V160.008H14.2864V125.721H17.1437H20.001H42.8593V157.151C42.8593 158.728 44.1394 160.008 45.7166 160.008H54.2885H57.1458H60.0031V157.151V114.292V111.434H68.5749H91.4332H100.005V114.292V157.151V160.008H102.862H105.72H114.292C115.869 160.008 117.149 158.728 117.149 157.151V125.721H140.007H142.864H145.722V160.008H151.436V124.509C156.474 122.298 160.008 117.277 160.008 111.434V74.2896H154.294ZM57.1458 105.72H51.4312H34.2875V88.576H28.5729V108.577C28.5729 110.154 29.853 111.434 31.4302 111.434H51.4312C53.0056 111.434 54.2885 112.717 54.2885 114.292V154.294H48.5739V122.863C48.5739 121.286 47.2938 120.006 45.7166 120.006H20.001V88.576C20.001 83.85 23.8469 80.0041 28.5729 80.0041H40.002V88.576V91.4333V97.1479C40.002 98.7251 41.2821 100.005 42.8593 100.005H65.7176V105.72H57.1458ZM114.292 120.006C112.714 120.006 111.434 121.286 111.434 122.863V154.294H105.72V114.292C105.72 112.717 107.003 111.434 108.577 111.434H128.578C130.155 111.434 131.435 110.154 131.435 108.577V88.576H125.721V105.72H108.577H102.862H94.2905V100.005H117.149C118.726 100.005 120.006 98.7251 120.006 97.1479V91.4333V88.576V80.0041H131.435C136.161 80.0041 140.007 83.85 140.007 88.576V120.006H114.292Z" fill="#32A8D3"/>
<path d="M54.2887 28.5729V37.1448C54.2887 38.3762 55.0744 39.4649 56.243 39.8563C56.5402 39.9535 56.8459 40.002 57.146 40.002C58.0289 40.002 58.8803 39.5906 59.4318 38.8591L67.1465 28.5729H88.5761C93.3021 28.5729 97.148 24.727 97.148 20.001V8.57187C97.148 3.84591 93.3021 0 88.5761 0H54.2887C49.5627 0 45.7168 3.84591 45.7168 8.57187V20.001C45.7168 24.727 49.5627 28.5729 54.2887 28.5729ZM51.4314 8.57187C51.4314 6.9975 52.7143 5.71458 54.2887 5.71458H88.5761C90.1505 5.71458 91.4334 6.9975 91.4334 8.57187V20.001C91.4334 21.5754 90.1505 22.8583 88.5761 22.8583H65.7178C64.8178 22.8583 63.972 23.2812 63.432 24.0012L60.0032 28.5729V25.7156C60.0032 24.1384 58.7232 22.8583 57.146 22.8583H54.2887C52.7143 22.8583 51.4314 21.5754 51.4314 20.001V8.57187Z" fill="#32A8D3"/>
<path d="M79.1242 10.4292H50.5513V16.1438H79.1242V10.4292Z" fill="#32A8D3"/>
<path d="M94.2907 71.4321H77.147V77.1467H94.2907V71.4321Z" fill="#32A8D3"/>
<path d="M74.2896 60.0032C69.5637 60.0032 65.7178 63.8491 65.7178 68.575V80.0042C65.7178 84.7301 69.5637 88.5761 74.2896 88.5761H97.1479C101.874 88.5761 105.72 84.7301 105.72 80.0042V78.0127L110.954 70.1608C111.54 69.2836 111.594 68.1579 111.097 67.2293C110.6 66.2978 109.631 65.7178 108.577 65.7178H105.231C104.051 62.3919 100.874 60.0032 97.1479 60.0032H74.2896ZM100.005 68.575C100.005 70.1523 101.285 71.4323 102.863 71.4323H103.237L100.485 75.5611C100.174 76.0297 100.005 76.584 100.005 77.1469V80.0042C100.005 81.5786 98.7223 82.8615 97.1479 82.8615H74.2896C72.7153 82.8615 71.4324 81.5786 71.4324 80.0042V68.575C71.4324 67.0007 72.7153 65.7178 74.2896 65.7178H97.1479C98.7223 65.7178 100.005 67.0007 100.005 68.575Z" fill="#32A8D3"/>
<path d="M71.4324 45.7166H65.7178V51.4311H71.4324V45.7166Z" fill="#32A8D3"/>
<path d="M82.8615 45.7166H77.147V51.4311H82.8615V45.7166Z" fill="#32A8D3"/>
<path d="M94.2903 45.7166H88.5757V51.4311H94.2903V45.7166Z" fill="#32A8D3"/>
</svg>
