<svg width="511" height="511" viewBox="0 0 511 511" fill="none" xmlns="http://www.w3.org/2000/svg">
<path d="M503.5 440H479V207.433C492.842 203.946 503 190.931 503 175.5V71.5C503 62.953 496.047 56 487.5 56H23.5C14.953 56 8 62.953 8 71.5V175.5C8 190.932 18.158 203.946 32 207.433V440H7.5C3.358 440 0 443.358 0 447.5C0 451.642 3.358 455 7.5 455H503.5C507.642 455 511 451.642 511 447.5C511 443.358 507.642 440 503.5 440ZM488 71.5V175.5C488 184.883 481.001 192.884 472.398 193.334C467.803 193.569 463.459 191.974 460.144 188.829C456.827 185.681 454.999 181.429 454.999 176.858V71H487.499C487.776 71 488 71.224 488 71.5ZM71 71H104V176.858C104 185.956 96.598 193.358 87.5 193.358C78.402 193.358 71 185.956 71 176.858V71ZM119 71H152V176.858C152 185.956 144.598 193.358 135.5 193.358C126.402 193.358 119 185.956 119 176.858V71ZM167 71H200V176.858C200 185.956 192.598 193.358 183.5 193.358C174.402 193.358 167 185.956 167 176.858V71ZM215 71H248V176.858C248 185.956 240.598 193.358 231.5 193.358C222.402 193.358 215 185.956 215 176.858V71ZM263 71H296V176.858C296 185.956 288.598 193.358 279.5 193.358C270.402 193.358 263 185.956 263 176.858V71ZM311 71H344V176.858C344 185.956 336.598 193.358 327.5 193.358C318.402 193.358 311 185.956 311 176.858V71ZM359 71H392V176.858C392 185.956 384.598 193.358 375.5 193.358C366.402 193.358 359 185.956 359 176.858V71ZM407 71H440V176.858C440 185.956 432.598 193.358 423.5 193.358C414.402 193.358 407 185.956 407 176.858V71ZM23 175.5V71.5C23 71.224 23.224 71 23.5 71H56V176.858C56 181.429 54.173 185.681 50.855 188.829C47.541 191.975 43.192 193.572 38.601 193.334C29.999 192.884 23 184.883 23 175.5ZM47 207.462C52.266 206.183 57.128 203.555 61.181 199.709C62.003 198.929 62.78 198.106 63.507 197.247C69.289 204.04 77.9 208.357 87.5 208.357C97.104 208.357 105.718 204.037 111.5 197.238C117.282 204.037 125.896 208.357 135.5 208.357C145.104 208.357 153.718 204.037 159.5 197.238C165.282 204.037 173.896 208.357 183.5 208.357C193.104 208.357 201.718 204.037 207.5 197.238C213.282 204.037 221.896 208.357 231.5 208.357C241.104 208.357 249.718 204.037 255.5 197.238C261.282 204.037 269.896 208.357 279.5 208.357C289.104 208.357 297.718 204.037 303.5 197.238C309.282 204.037 317.896 208.357 327.5 208.357C337.104 208.357 345.718 204.037 351.5 197.238C357.282 204.037 365.896 208.357 375.5 208.357C385.104 208.357 393.718 204.037 399.5 197.238C405.282 204.037 413.896 208.357 423.5 208.357C433.1 208.357 441.71 204.04 447.493 197.247C448.221 198.106 448.997 198.929 449.819 199.709C453.873 203.556 458.733 206.191 464 207.47V440H431V263.5C431 254.953 424.047 248 415.5 248H319.5C310.953 248 304 254.953 304 263.5V440H47V207.462ZM416 440H319V263.5C319 263.224 319.224 263 319.5 263H415.5C415.776 263 416 263.224 416 263.5V440Z" fill="#32A8D3"/>
<path d="M343.5 336C339.358 336 336 339.358 336 343.5V359.5C336 363.642 339.358 367 343.5 367C347.642 367 351 363.642 351 359.5V343.5C351 339.358 347.642 336 343.5 336Z" fill="#32A8D3"/>
<path d="M262.5 248H88.5C83.813 248 80 251.813 80 256.5V398.5C80 403.187 83.813 407 88.5 407H262.5C267.187 407 271 403.187 271 398.5V256.5C271 251.813 267.187 248 262.5 248ZM256 392H95V263H256V392Z" fill="#32A8D3"/>
</svg>
